<svg width="33" height="32" viewBox="0 0 33 32" fill="none" xmlns="http://www.w3.org/2000/svg">
<path d="M5.32863 12.1765V21.5719C5.32863 21.8158 5.63268 21.9378 5.81044 21.7661L7.51316 20.1219C7.56461 20.0677 7.59736 20 7.59736 19.9277V17.3982C7.59736 17.1543 7.90141 17.0323 8.07917 17.204L11.1665 20.131C11.2788 20.2394 11.2788 20.4155 11.1665 20.5194L0.131593 30.9808C-0.0461625 31.157 0.0754601 31.4506 0.328062 31.4506H2.76051C2.83068 31.4506 2.90553 31.4235 2.95698 31.3738L14.4035 20.5194C14.5158 20.4155 14.5158 20.2394 14.4035 20.131L5.81044 11.9778C5.63268 11.8062 5.32863 11.9326 5.32863 12.1765ZM16.2981 22.3036L7.14361 30.9808C6.96585 31.157 7.08748 31.4506 7.34008 31.4506H9.77253C9.84737 31.4506 9.92222 31.4235 9.97368 31.3738L16.2981 25.3752C16.4103 25.2713 16.5834 25.2713 16.6957 25.3752L23.02 31.3738C23.0762 31.4235 23.1463 31.4506 23.2212 31.4506H25.6583C25.9109 31.4506 26.0372 31.157 25.8548 30.9808L16.6957 22.3036C16.5834 22.1952 16.4103 22.1952 16.2981 22.3036ZM21.8319 20.1265L24.9192 17.204C25.097 17.0323 25.401 17.1543 25.401 17.3982V19.9277C25.401 20 25.4291 20.0677 25.4852 20.1219L27.1833 21.7661C27.361 21.9378 27.6698 21.8158 27.6698 21.5719V12.1765C27.6698 11.9326 27.3657 11.8062 27.188 11.9778L18.5902 20.1265C18.4779 20.2349 18.4779 20.411 18.5902 20.5194L30.0461 31.3738C30.0976 31.4235 30.1677 31.4506 30.2426 31.4506H32.6657C32.9229 31.4506 33.0492 31.157 32.8668 30.9808L21.8319 20.5194C21.7196 20.411 21.7196 20.2349 21.8319 20.1265ZM3.16748 5.89341L16.2981 18.3468C16.4103 18.4507 16.5834 18.4507 16.6957 18.3468L29.8309 5.89341C30.0087 5.72177 30.3127 5.84824 30.3127 6.08764V24.6751C30.3127 24.7473 30.3408 24.8196 30.3923 24.8693L32.095 26.518C32.2727 26.6851 32.5768 26.5632 32.5768 26.3238V0.865998C32.5768 0.622081 32.2774 0.500122 32.0997 0.671767L16.6957 15.2752C16.5834 15.3791 16.4103 15.3791 16.2981 15.2752L0.898752 0.671767C0.720996 0.500122 0.416939 0.622081 0.416939 0.865998V26.3238C0.416939 26.5632 0.725674 26.6851 0.903429 26.518L2.60147 24.8693C2.6576 24.8196 2.68567 24.7473 2.68567 24.6751V6.08764C2.68567 5.84824 2.98973 5.72177 3.16748 5.89341Z" fill="#F4F4F4"/>
</svg>
