<svg width="25" height="26" viewBox="0 0 25 26" fill="none" xmlns="http://www.w3.org/2000/svg">
    <g clip-path="url(#clip0_1_1557)">
        <path d="M4.16669 19.9083V9.49166C4.16669 7.28152 5.04466 5.16191 6.60746 3.5991C8.17027 2.0363 10.2899 1.15833 12.5 1.15833C14.7102 1.15833 16.8298 2.0363 18.3926 3.5991C19.9554 5.16191 20.8334 7.28152 20.8334 9.49166V19.9083M1.04169 19.9083H23.9584M15.625 19.9083V20.95C15.625 21.7788 15.2958 22.5737 14.7097 23.1597C14.1237 23.7458 13.3288 24.075 12.5 24.075C11.6712 24.075 10.8764 23.7458 10.2903 23.1597C9.70426 22.5737 9.37502 21.7788 9.37502 20.95V19.9083" stroke="#010101" stroke-opacity="0.6" stroke-width="2"/>
    </g>
    <defs>
        <clipPath id="clip0_1_1557">
            <rect width="25" height="25" fill="white" transform="translate(0 0.116699)"/>
        </clipPath>
    </defs>
</svg>
