<svg width="26" height="27" viewBox="0 0 26 27" fill="none" xmlns="http://www.w3.org/2000/svg">
    <g clip-path="url(#clip0_1_1427)">
        <path d="M13.3549 9.52309C12.614 9.44991 11.8686 9.60754 11.2207 9.97438C10.5728 10.3412 10.0542 10.8993 9.73577 11.5723C9.41736 12.2453 9.31474 13.0003 9.44198 13.7338C9.56921 14.4674 9.92008 15.1437 10.4465 15.6702C10.973 16.1966 11.6493 16.5475 12.3828 16.6747C13.1164 16.8019 13.8714 16.6993 14.5444 16.3809C15.2173 16.0625 15.7755 15.5439 16.1423 14.896C16.5091 14.2481 16.6668 13.5027 16.5936 12.7618C16.5102 11.9312 16.1421 11.155 15.5519 10.5648C14.9616 9.97453 14.1855 9.60651 13.3549 9.52309ZM22.0498 13.1167C22.0475 13.5092 22.0186 13.9011 21.9634 14.2898L24.5143 16.2905C24.6254 16.3826 24.7003 16.5111 24.7256 16.6531C24.7509 16.7952 24.725 16.9416 24.6526 17.0664L22.2393 21.2417C22.1661 21.3653 22.0515 21.459 21.9159 21.5064C21.7802 21.5538 21.6322 21.5518 21.4979 21.5007L18.9645 20.4806C18.8248 20.4249 18.6735 20.4048 18.5241 20.4221C18.3747 20.4393 18.2319 20.4933 18.1086 20.5793C17.7219 20.8455 17.3156 21.0821 16.8932 21.2868C16.7604 21.3514 16.6455 21.4477 16.5587 21.5671C16.4719 21.6866 16.4159 21.8256 16.3955 21.9718L16.0158 24.674C15.9909 24.8167 15.9172 24.9463 15.8072 25.0406C15.6973 25.135 15.558 25.1883 15.4132 25.1914H10.5867C10.4443 25.1889 10.3069 25.138 10.1973 25.047C10.0877 24.956 10.0123 24.8304 9.98357 24.6909L9.6044 21.9927C9.58311 21.8448 9.52561 21.7045 9.43702 21.5842C9.34843 21.4639 9.23148 21.3674 9.09659 21.3032C8.67466 21.0995 8.26975 20.8624 7.88574 20.594C7.76279 20.5084 7.62049 20.4548 7.47165 20.438C7.32282 20.4211 7.17214 20.4416 7.03318 20.4975L4.50032 21.5171C4.3661 21.5682 4.21814 21.5703 4.08251 21.523C3.94688 21.4757 3.83229 21.3821 3.75892 21.2586L1.34568 17.0833C1.27312 16.9585 1.2472 16.8121 1.27251 16.67C1.29783 16.5279 1.37274 16.3995 1.48392 16.3075L3.63986 14.6148C3.75798 14.521 3.85081 14.3992 3.90993 14.2605C3.96905 14.1217 3.99258 13.9704 3.9784 13.8203C3.95809 13.585 3.94568 13.3503 3.94568 13.115C3.94568 12.8797 3.95753 12.6484 3.9784 12.4182C3.99103 12.269 3.96634 12.1189 3.90655 11.9816C3.84677 11.8443 3.75376 11.724 3.63591 11.6316L1.48109 9.93893C1.37172 9.84645 1.29839 9.71842 1.27394 9.5773C1.24949 9.43617 1.27548 9.29094 1.34737 9.16705L3.76061 4.99171C3.83389 4.86813 3.94845 4.7744 4.08408 4.72702C4.21972 4.67964 4.36772 4.68166 4.50201 4.73272L7.03543 5.75286C7.17514 5.80849 7.32647 5.82858 7.47585 5.81135C7.62523 5.79412 7.76801 5.74009 7.89138 5.65412C8.27802 5.38787 8.68431 5.15134 9.10675 4.94657C9.23955 4.88202 9.35443 4.78576 9.44122 4.6663C9.52801 4.54684 9.58406 4.40784 9.6044 4.26158L9.98413 1.55946C10.0091 1.41675 10.0828 1.28714 10.1927 1.19276C10.3026 1.09839 10.4419 1.04512 10.5867 1.04205H15.4132C15.5557 1.04452 15.693 1.09543 15.8027 1.1864C15.9123 1.27738 15.9877 1.40298 16.0164 1.54253L16.3955 4.24071C16.4168 4.38858 16.4743 4.52889 16.5629 4.64918C16.6515 4.76947 16.7685 4.866 16.9034 4.9302C17.3253 5.13387 17.7302 5.37104 18.1142 5.63945C18.2372 5.725 18.3795 5.77861 18.5283 5.79545C18.6771 5.81229 18.8278 5.79184 18.9668 5.73593L21.4996 4.71636C21.6339 4.66525 21.7818 4.66314 21.9174 4.71041C22.0531 4.75769 22.1677 4.85131 22.241 4.97478L24.6543 9.15013C24.7268 9.27487 24.7528 9.42132 24.7274 9.56339C24.7021 9.70546 24.6272 9.83394 24.516 9.92595L22.3601 11.6187C22.2415 11.7121 22.1481 11.8338 22.0885 11.9725C22.0288 12.1113 22.0049 12.2627 22.0187 12.4131C22.0373 12.6467 22.0498 12.8814 22.0498 13.1167Z" stroke="#6A6A6B" stroke-opacity="0.6" stroke-width="2" stroke-linecap="round" stroke-linejoin="round"/>
    </g>
    <defs>
        <clipPath id="clip0_1_1427">
            <rect width="26" height="26" fill="white" transform="translate(0 0.116699)"/>
        </clipPath>
    </defs>
</svg>
