<svg width="25" height="32" viewBox="0 0 25 32" fill="none" xmlns="http://www.w3.org/2000/svg">
    <g clip-path="url(#clip0_1_1551)">
        <path d="M23.47 13.6994C23.47 20.936 18.4631 27.7032 11.735 29.3461C5.00693 27.7032 0 20.936 0 13.6994V5.87608L11.735 0.660522L23.47 5.87608V13.6994ZM11.735 26.7383C16.6246 25.4344 20.8622 19.6191 20.8622 13.9863V7.57113L11.735 3.503L2.60778 7.57113V13.9863C2.60778 19.6191 6.84542 25.4344 11.735 26.7383ZM15.3859 13.6994V11.7436C15.3859 9.91813 13.5604 8.48386 11.735 8.48386C9.90955 8.48386 8.08411 9.91813 8.08411 11.7436V13.6994C7.30178 13.6994 6.51944 14.4817 6.51944 15.2641V19.8277C6.51944 20.7404 7.30178 21.5227 8.08411 21.5227H15.2555C16.1682 21.5227 16.9506 20.7404 16.9506 19.9581V15.3945C16.9506 14.4817 16.1682 13.6994 15.3859 13.6994ZM13.6908 13.6994H9.77917V11.7436C9.77917 10.7005 10.6919 10.0485 11.735 10.0485C12.7781 10.0485 13.6908 10.7005 13.6908 11.7436V13.6994Z" fill="#6B6B6B" fill-opacity="0.6"/>
    </g>
    <defs>
        <clipPath id="clip0_1_1551">
            <rect width="24.8" height="31" fill="white" transform="translate(0 0.116699)"/>
        </clipPath>
    </defs>
</svg>
